<mxfile host="app.diagrams.net" modified="2021-01-22T02:05:27.909Z" agent="5.0 (Windows NT 10.0; WOW64) AppleWebKit/537.36 (KHTML, like Gecko) Chrome/76.0.3809.132 Safari/537.36" etag="pKEIB9S1miExGP-U1XEz" version="14.2.5" type="github">
  <diagram id="SbBS-sBo011seZGozvnd" name="第 1 页">
    <mxGraphModel dx="1955" dy="839" grid="1" gridSize="10" guides="1" tooltips="1" connect="1" arrows="1" fold="1" page="1" pageScale="1" pageWidth="1654" pageHeight="2336" math="0" shadow="0">
      <root>
        <mxCell id="0" />
        <mxCell id="1" parent="0" />
        <mxCell id="s0KOmCvRi8nNo2-xXgAx-1" value="&lt;p style=&quot;margin: 0px ; margin-top: 4px ; text-align: center ; text-decoration: underline&quot;&gt;&lt;i style=&quot;font-size: 14px&quot;&gt;&amp;lt;&amp;lt;Interface&amp;gt;&amp;gt;&lt;/i&gt;&lt;span style=&quot;font-size: 14px ; background-color: rgba(255 , 255 , 255 , 0.01) ; color: rgb(50 , 50 , 50) ; font-weight: 700&quot;&gt;&lt;br&gt;&lt;/span&gt;&lt;/p&gt;&lt;p style=&quot;margin: 0px ; margin-top: 4px ; text-align: center ; text-decoration: underline&quot;&gt;&lt;span style=&quot;font-size: 14px ; background-color: rgba(255 , 255 , 255 , 0.01) ; color: rgb(50 , 50 , 50) ; font-weight: 700&quot;&gt;IRoutes&lt;/span&gt;&lt;br&gt;&lt;/p&gt;&lt;div style=&quot;resize: none ; outline: 0px ; color: rgb(50 , 50 , 50) ; font-weight: 700 ; text-align: center&quot;&gt;&lt;font size=&quot;3&quot;&gt;//路由器句柄接口&lt;/font&gt;&lt;/div&gt;&lt;hr&gt;&lt;p style=&quot;margin: 0px ; margin-left: 8px&quot;&gt;&lt;font size=&quot;3&quot;&gt;&lt;span style=&quot;color: rgb(50 , 50 , 50) ; background-color: rgba(255 , 255 , 255 , 0.01)&quot;&gt;+Use(...HandlerFunc):IRoutes&lt;/span&gt;&lt;br style=&quot;color: rgb(50 , 50 , 50)&quot;&gt;&lt;/font&gt;&lt;/p&gt;&lt;div style=&quot;resize: none ; outline: 0px ; color: rgb(50 , 50 , 50)&quot;&gt;&lt;/div&gt;&lt;div style=&quot;resize: none ; outline: 0px ; color: rgb(50 , 50 , 50)&quot;&gt;&lt;/div&gt;&lt;p style=&quot;margin: 0px ; margin-left: 8px&quot;&gt;&lt;font size=&quot;3&quot;&gt;&lt;span style=&quot;color: rgb(50 , 50 , 50) ; background-color: rgba(255 , 255 , 255 , 0.01)&quot;&gt;+Handle(string, string, ...HandlerFunc):IRoutes&lt;/span&gt;&lt;br style=&quot;color: rgb(50 , 50 , 50)&quot;&gt;&lt;/font&gt;&lt;/p&gt;&lt;div style=&quot;resize: none ; outline: 0px ; color: rgb(50 , 50 , 50)&quot;&gt;&lt;/div&gt;&lt;p style=&quot;margin: 0px ; margin-left: 8px&quot;&gt;&lt;font size=&quot;3&quot;&gt;&lt;span style=&quot;color: rgb(50 , 50 , 50) ; background-color: rgba(255 , 255 , 255 , 0.01)&quot;&gt;+Any(string, ...HandlerFunc):IRoutes&lt;/span&gt;&lt;br style=&quot;color: rgb(50 , 50 , 50)&quot;&gt;&lt;/font&gt;&lt;/p&gt;&lt;div style=&quot;resize: none ; outline: 0px ; color: rgb(50 , 50 , 50)&quot;&gt;&lt;/div&gt;&lt;p style=&quot;margin: 0px ; margin-left: 8px&quot;&gt;&lt;font size=&quot;3&quot;&gt;&lt;span style=&quot;color: rgb(50 , 50 , 50) ; background-color: rgba(255 , 255 , 255 , 0.01)&quot;&gt;+GET(string, ...HandlerFunc):IRoutes&lt;/span&gt;&lt;br style=&quot;color: rgb(50 , 50 , 50)&quot;&gt;&lt;/font&gt;&lt;/p&gt;&lt;div style=&quot;resize: none ; outline: 0px ; color: rgb(50 , 50 , 50)&quot;&gt;&lt;/div&gt;&lt;p style=&quot;margin: 0px ; margin-left: 8px&quot;&gt;&lt;font size=&quot;3&quot;&gt;&lt;span style=&quot;color: rgb(50 , 50 , 50) ; background-color: rgba(255 , 255 , 255 , 0.01)&quot;&gt;+POST(string, ...HandlerFunc):IRoutes&lt;/span&gt;&lt;br style=&quot;color: rgb(50 , 50 , 50)&quot;&gt;&lt;/font&gt;&lt;/p&gt;&lt;div style=&quot;resize: none ; outline: 0px ; color: rgb(50 , 50 , 50)&quot;&gt;&lt;/div&gt;&lt;p style=&quot;margin: 0px ; margin-left: 8px&quot;&gt;&lt;font size=&quot;3&quot;&gt;&lt;span style=&quot;color: rgb(50 , 50 , 50) ; background-color: rgba(255 , 255 , 255 , 0.01)&quot;&gt;+DELETE(string, ...HandlerFunc):IRoutes&lt;/span&gt;&lt;br style=&quot;color: rgb(50 , 50 , 50)&quot;&gt;&lt;/font&gt;&lt;/p&gt;&lt;div style=&quot;resize: none ; outline: 0px ; color: rgb(50 , 50 , 50)&quot;&gt;&lt;/div&gt;&lt;p style=&quot;margin: 0px ; margin-left: 8px&quot;&gt;&lt;font size=&quot;3&quot;&gt;&lt;span style=&quot;color: rgb(50 , 50 , 50) ; background-color: rgba(255 , 255 , 255 , 0.01)&quot;&gt;+PATCH(string, ...HandlerFunc):IRoutes&lt;/span&gt;&lt;br style=&quot;color: rgb(50 , 50 , 50)&quot;&gt;&lt;/font&gt;&lt;/p&gt;&lt;div style=&quot;resize: none ; outline: 0px ; color: rgb(50 , 50 , 50)&quot;&gt;&lt;/div&gt;&lt;p style=&quot;margin: 0px ; margin-left: 8px&quot;&gt;&lt;font size=&quot;3&quot;&gt;&lt;span style=&quot;color: rgb(50 , 50 , 50) ; background-color: rgba(255 , 255 , 255 , 0.01)&quot;&gt;+PUT(string, ...HandlerFunc):IRoutes&lt;/span&gt;&lt;br style=&quot;color: rgb(50 , 50 , 50)&quot;&gt;&lt;/font&gt;&lt;/p&gt;&lt;div style=&quot;resize: none ; outline: 0px ; color: rgb(50 , 50 , 50)&quot;&gt;&lt;/div&gt;&lt;p style=&quot;margin: 0px ; margin-left: 8px&quot;&gt;&lt;font size=&quot;3&quot;&gt;&lt;span style=&quot;color: rgb(50 , 50 , 50) ; background-color: rgba(255 , 255 , 255 , 0.01)&quot;&gt;+OPTIONS(string, ...HandlerFunc):IRoutes&lt;/span&gt;&lt;br style=&quot;color: rgb(50 , 50 , 50)&quot;&gt;&lt;/font&gt;&lt;/p&gt;&lt;div style=&quot;resize: none ; outline: 0px ; color: rgb(50 , 50 , 50)&quot;&gt;&lt;/div&gt;&lt;p style=&quot;margin: 0px ; margin-left: 8px&quot;&gt;&lt;font size=&quot;3&quot;&gt;&lt;span style=&quot;color: rgb(50 , 50 , 50) ; background-color: rgba(255 , 255 , 255 , 0.01)&quot;&gt;+HEAD(string, ...HandlerFunc):IRoutes&lt;/span&gt;&lt;br style=&quot;color: rgb(50 , 50 , 50)&quot;&gt;&lt;/font&gt;&lt;/p&gt;&lt;div style=&quot;resize: none ; outline: 0px ; color: rgb(50 , 50 , 50)&quot;&gt;&lt;/div&gt;&lt;div style=&quot;resize: none ; outline: 0px ; color: rgb(50 , 50 , 50)&quot;&gt;&lt;/div&gt;&lt;p style=&quot;margin: 0px ; margin-left: 8px&quot;&gt;&lt;font size=&quot;3&quot;&gt;&lt;span style=&quot;color: rgb(50 , 50 , 50) ; background-color: rgba(255 , 255 , 255 , 0.01)&quot;&gt;+StaticFile(string, string):IRoutes&lt;/span&gt;&lt;br style=&quot;color: rgb(50 , 50 , 50)&quot;&gt;&lt;/font&gt;&lt;/p&gt;&lt;div style=&quot;resize: none ; outline: 0px ; color: rgb(50 , 50 , 50)&quot;&gt;&lt;/div&gt;&lt;p style=&quot;margin: 0px ; margin-left: 8px&quot;&gt;&lt;font size=&quot;3&quot;&gt;&lt;span style=&quot;color: rgb(50 , 50 , 50) ; background-color: rgba(255 , 255 , 255 , 0.01)&quot;&gt;+Static(string, string):IRoutes&lt;/span&gt;&lt;br style=&quot;color: rgb(50 , 50 , 50)&quot;&gt;&lt;/font&gt;&lt;/p&gt;&lt;div style=&quot;resize: none ; outline: 0px ; color: rgb(50 , 50 , 50)&quot;&gt;&lt;/div&gt;&lt;p style=&quot;margin: 0px ; margin-left: 8px&quot;&gt;&lt;span style=&quot;color: rgb(50 , 50 , 50) ; background-color: rgba(255 , 255 , 255 , 0.01)&quot;&gt;&lt;font size=&quot;3&quot;&gt;+StaticFS(string, http.FileSystem):IRoutes&lt;/font&gt;&lt;/span&gt;&lt;br&gt;&lt;/p&gt;" style="verticalAlign=top;align=left;overflow=fill;fontSize=12;fontFamily=Helvetica;html=1;" vertex="1" parent="1">
          <mxGeometry x="130" y="10" width="350" height="330" as="geometry" />
        </mxCell>
        <mxCell id="s0KOmCvRi8nNo2-xXgAx-2" value="&lt;p style=&quot;margin: 0px ; margin-top: 4px ; text-align: center ; text-decoration: underline&quot;&gt;&lt;i style=&quot;font-size: 14px&quot;&gt;&amp;lt;&amp;lt;Interface&amp;gt;&amp;gt;&lt;/i&gt;&lt;span style=&quot;color: rgb(50 , 50 , 50) ; font-weight: 700 ; background-color: rgba(255 , 255 , 255 , 0.01)&quot;&gt;&lt;font style=&quot;font-size: 14px&quot;&gt;&lt;br&gt;&lt;/font&gt;&lt;/span&gt;&lt;/p&gt;&lt;p style=&quot;margin: 0px ; margin-top: 4px ; text-align: center ; text-decoration: underline&quot;&gt;&lt;span style=&quot;color: rgb(50 , 50 , 50) ; font-weight: 700 ; background-color: rgba(255 , 255 , 255 , 0.01)&quot;&gt;&lt;font style=&quot;font-size: 14px&quot;&gt;IRouter&lt;/font&gt;&lt;/span&gt;&lt;/p&gt;&lt;div style=&quot;resize: none ; outline: 0px ; color: rgb(50 , 50 , 50) ; font-weight: 700 ; text-align: center&quot;&gt;&lt;font size=&quot;3&quot;&gt;//路由器句柄接口,包括了单路由器和路由器组&lt;/font&gt;&lt;/div&gt;&lt;hr&gt;&lt;p style=&quot;margin: 0px ; margin-left: 8px&quot;&gt;&lt;span style=&quot;color: rgb(50 , 50 , 50) ; background-color: rgba(255 , 255 , 255 , 0.01)&quot;&gt;&lt;font size=&quot;3&quot;&gt;+Group(string, ...HandlerFunc):*RouterGroup&lt;/font&gt;&lt;/span&gt;&lt;br&gt;&lt;/p&gt;" style="verticalAlign=top;align=left;overflow=fill;fontSize=12;fontFamily=Helvetica;html=1;" vertex="1" parent="1">
          <mxGeometry x="120" y="400" width="370" height="110" as="geometry" />
        </mxCell>
        <mxCell id="s0KOmCvRi8nNo2-xXgAx-3" value="&lt;p style=&quot;margin: 0px ; margin-top: 4px ; text-align: center&quot;&gt;&lt;span style=&quot;color: rgb(50 , 50 , 50) ; font-weight: 700 ; background-color: rgba(255 , 255 , 255 , 0.01)&quot;&gt;&lt;font style=&quot;font-size: 14px&quot;&gt;RouterGroup&lt;/font&gt;&lt;/span&gt;&lt;/p&gt;&lt;div style=&quot;resize: none ; outline: 0px ; color: rgb(50 , 50 , 50) ; font-weight: 700 ; text-align: center&quot;&gt;&lt;font size=&quot;3&quot;&gt;//用于内部配置路由器&lt;/font&gt;&lt;/div&gt;&lt;hr size=&quot;1&quot;&gt;&lt;div style=&quot;resize: none ; outline: 0px ; color: rgb(50 , 50 , 50)&quot;&gt;&lt;font size=&quot;3&quot;&gt;//中间件数组&lt;/font&gt;&lt;/div&gt;&lt;p style=&quot;margin: 0px ; margin-left: 4px&quot;&gt;&lt;span style=&quot;color: rgb(50 , 50 , 50) ; background-color: rgba(255 , 255 , 255 , 0.01)&quot;&gt;&lt;font size=&quot;3&quot;&gt;+Handlers:HandlersChain&lt;/font&gt;&lt;/span&gt;&lt;/p&gt;&lt;div style=&quot;resize: none ; outline: 0px ; color: rgb(50 , 50 , 50)&quot;&gt;&lt;font size=&quot;3&quot;&gt;//路径&lt;br&gt;&lt;/font&gt;&lt;div style=&quot;resize: none ; outline: 0px&quot;&gt;&lt;/div&gt;&lt;font size=&quot;3&quot;&gt;-basePath:string&lt;/font&gt;&lt;/div&gt;&lt;div style=&quot;resize: none ; outline: 0px ; color: rgb(50 , 50 , 50)&quot;&gt;&lt;font size=&quot;3&quot;&gt;//框架引擎&lt;br&gt;&lt;/font&gt;&lt;div style=&quot;resize: none ; outline: 0px&quot;&gt;&lt;/div&gt;&lt;font size=&quot;3&quot;&gt;-engine:*Engine&lt;/font&gt;&lt;/div&gt;&lt;div style=&quot;resize: none ; outline: 0px ; color: rgb(50 , 50 , 50)&quot;&gt;&lt;font size=&quot;3&quot;&gt;//是否是根路由组&lt;br&gt;&lt;/font&gt;&lt;div style=&quot;resize: none ; outline: 0px&quot;&gt;&lt;/div&gt;&lt;font size=&quot;3&quot;&gt;-root:bool&lt;/font&gt;&lt;/div&gt;&lt;hr size=&quot;1&quot;&gt;&lt;div style=&quot;resize: none ; outline: 0px ; color: rgb(50 , 50 , 50)&quot;&gt;&lt;font size=&quot;3&quot;&gt;//增加中间件&lt;/font&gt;&lt;/div&gt;&lt;p style=&quot;margin: 0px ; margin-left: 4px&quot;&gt;&lt;span style=&quot;color: rgb(50 , 50 , 50) ; background-color: rgba(255 , 255 , 255 , 0.01)&quot;&gt;&lt;font size=&quot;3&quot;&gt;+Use(middleware ...HandlerFunc):IRoutes&amp;nbsp;&lt;/font&gt;&lt;/span&gt;&lt;/p&gt;&lt;div style=&quot;resize: none ; outline: 0px ; color: rgb(50 , 50 , 50)&quot;&gt;&lt;font size=&quot;3&quot;&gt;//创建一个新的路由组&lt;/font&gt;&lt;/div&gt;&lt;div style=&quot;resize: none ; outline: 0px ; color: rgb(50 , 50 , 50)&quot;&gt;&lt;div style=&quot;resize: none ; outline: 0px&quot;&gt;&lt;font size=&quot;3&quot;&gt;+Group(relativePath string, handlers ...HandlerFunc):*RouterGroup&lt;/font&gt;&lt;/div&gt;&lt;/div&gt;&lt;div style=&quot;resize: none ; outline: 0px ; color: rgb(50 , 50 , 50)&quot;&gt;&lt;font size=&quot;3&quot;&gt;//getter&lt;/font&gt;&lt;/div&gt;&lt;div style=&quot;resize: none ; outline: 0px ; color: rgb(50 , 50 , 50)&quot;&gt;&lt;font size=&quot;3&quot;&gt;+BasePath():string&lt;/font&gt;&lt;/div&gt;&lt;div style=&quot;resize: none ; outline: 0px ; color: rgb(50 , 50 , 50)&quot;&gt;&lt;font size=&quot;3&quot;&gt;//注册一个请求或中间件，最后一个handler应该是业务逻辑&lt;/font&gt;&lt;/div&gt;&lt;div style=&quot;resize: none ; outline: 0px ; color: rgb(50 , 50 , 50)&quot;&gt;&lt;font size=&quot;3&quot;&gt;+Handle(httpMethod, relativePath string, handlers ...HandlerFunc):IRoutes&lt;/font&gt;&lt;/div&gt;&lt;div style=&quot;resize: none ; outline: 0px ; color: rgb(50 , 50 , 50)&quot;&gt;&lt;font size=&quot;3&quot;&gt;//楼上的私有方法实现&lt;/font&gt;&lt;/div&gt;&lt;div style=&quot;resize: none ; outline: 0px ; color: rgb(50 , 50 , 50)&quot;&gt;&lt;font size=&quot;3&quot;&gt;-handle(httpMethod, relativePath string, handlers HandlersChain):IRoutes&lt;/font&gt;&lt;/div&gt;&lt;div style=&quot;resize: none ; outline: 0px ; color: rgb(50 , 50 , 50)&quot;&gt;&lt;font size=&quot;3&quot;&gt;//各种请求方法，调用handle实现&lt;/font&gt;&lt;/div&gt;&lt;div style=&quot;resize: none ; outline: 0px ; color: rgb(50 , 50 , 50)&quot;&gt;&lt;font size=&quot;3&quot;&gt;+POST(relativePath string, handlers ...HandlerFunc):IRoutes&lt;/font&gt;&lt;/div&gt;&lt;div style=&quot;resize: none ; outline: 0px ; color: rgb(50 , 50 , 50)&quot;&gt;&lt;font size=&quot;3&quot;&gt;+GET(relativePath string, handlers ...HandlerFunc):IRoutes&lt;br&gt;&lt;/font&gt;&lt;/div&gt;&lt;div style=&quot;resize: none ; outline: 0px ; color: rgb(50 , 50 , 50)&quot;&gt;&lt;font size=&quot;3&quot;&gt;+DELETE(relativePath string, handlers ...HandlerFunc):IRoutes&lt;br&gt;&lt;/font&gt;&lt;/div&gt;&lt;div style=&quot;resize: none ; outline: 0px ; color: rgb(50 , 50 , 50)&quot;&gt;&lt;font size=&quot;3&quot;&gt;+PATCH(relativePath string, handlers ...HandlerFunc) IRoutes&lt;br&gt;&lt;/font&gt;&lt;/div&gt;&lt;div style=&quot;resize: none ; outline: 0px ; color: rgb(50 , 50 , 50)&quot;&gt;&lt;font size=&quot;3&quot;&gt;+PUT(relativePath string, handlers ...HandlerFunc) IRoutes&lt;br&gt;&lt;/font&gt;&lt;/div&gt;&lt;div style=&quot;resize: none ; outline: 0px ; color: rgb(50 , 50 , 50)&quot;&gt;&lt;font size=&quot;3&quot;&gt;+OPTIONS(relativePath string, handlers ...HandlerFunc) IRoutes&lt;br&gt;&lt;/font&gt;&lt;/div&gt;&lt;div style=&quot;resize: none ; outline: 0px ; color: rgb(50 , 50 , 50)&quot;&gt;&lt;font size=&quot;3&quot;&gt;+HEAD(relativePath string, handlers ...HandlerFunc) IRoutes&lt;br&gt;&lt;/font&gt;&lt;/div&gt;&lt;div style=&quot;resize: none ; outline: 0px ; color: rgb(50 , 50 , 50)&quot;&gt;&lt;font size=&quot;3&quot;&gt;+ANY(relativePath string, handlers ...HandlerFunc) IRoutes&lt;br&gt;&lt;/font&gt;&lt;/div&gt;&lt;div style=&quot;resize: none ; outline: 0px ; color: rgb(50 , 50 , 50)&quot;&gt;&lt;font size=&quot;3&quot;&gt;//给静态文件一个单独路由&lt;/font&gt;&lt;/div&gt;&lt;div style=&quot;resize: none ; outline: 0px ; color: rgb(50 , 50 , 50)&quot;&gt;&lt;font size=&quot;3&quot;&gt;+StaticFile(relativePath, filepath string) IRoutes&amp;nbsp;&lt;/font&gt;&lt;/div&gt;&lt;div style=&quot;resize: none ; outline: 0px ; color: rgb(50 , 50 , 50)&quot;&gt;&lt;font size=&quot;3&quot;&gt;//给目录一个单独路由&lt;/font&gt;&lt;/div&gt;&lt;div style=&quot;resize: none ; outline: 0px ; color: rgb(50 , 50 , 50)&quot;&gt;&lt;font size=&quot;3&quot;&gt;+Static(relativePath, root string) IRoutes&lt;br&gt;&lt;/font&gt;&lt;/div&gt;&lt;div style=&quot;resize: none ; outline: 0px ; color: rgb(50 , 50 , 50)&quot;&gt;&lt;font size=&quot;3&quot;&gt;//和楼上类似。接受一个http.FileSystem接口&lt;/font&gt;&lt;/div&gt;&lt;div style=&quot;resize: none ; outline: 0px ; color: rgb(50 , 50 , 50)&quot;&gt;&lt;font size=&quot;3&quot;&gt;+StaticFS(relativePath string, fs http.FileSystem) IRoutes&lt;br&gt;&lt;/font&gt;&lt;/div&gt;&lt;div style=&quot;resize: none ; outline: 0px ; color: rgb(50 , 50 , 50)&quot;&gt;&lt;font size=&quot;3&quot;&gt;//建立静态目录映射&lt;/font&gt;&lt;/div&gt;&lt;div style=&quot;resize: none ; outline: 0px ; color: rgb(50 , 50 , 50)&quot;&gt;&lt;font size=&quot;3&quot;&gt;-createStaticHandler(relativePath string, fs http.FileSystem) HandlerFunc&lt;br&gt;&lt;/font&gt;&lt;/div&gt;&lt;div style=&quot;resize: none ; outline: 0px ; color: rgb(50 , 50 , 50)&quot;&gt;&lt;font size=&quot;3&quot;&gt;//合并中间件数组&lt;/font&gt;&lt;/div&gt;&lt;div style=&quot;resize: none ; outline: 0px ; color: rgb(50 , 50 , 50)&quot;&gt;&lt;font size=&quot;3&quot;&gt;-combineHandlers(handlers HandlersChain) HandlersChain&amp;nbsp;&lt;br&gt;&lt;/font&gt;&lt;/div&gt;&lt;div style=&quot;resize: none ; outline: 0px ; color: rgb(50 , 50 , 50)&quot;&gt;&lt;font size=&quot;3&quot;&gt;//计算绝对路径&lt;/font&gt;&lt;/div&gt;&lt;div style=&quot;resize: none ; outline: 0px ; color: rgb(50 , 50 , 50)&quot;&gt;&lt;font size=&quot;3&quot;&gt;-calculateAbsolutePath(relativePath string) string&lt;/font&gt;&lt;/div&gt;&lt;div style=&quot;resize: none ; outline: 0px ; color: rgb(50 , 50 , 50)&quot;&gt;&lt;font size=&quot;3&quot;&gt;//返回根路由组&lt;/font&gt;&lt;/div&gt;&lt;div style=&quot;resize: none ; outline: 0px ; color: rgb(50 , 50 , 50)&quot;&gt;&lt;font size=&quot;3&quot;&gt;-returnObj() IRoutes&lt;/font&gt;&lt;/div&gt;" style="verticalAlign=top;align=left;overflow=fill;fontSize=12;fontFamily=Helvetica;html=1;" vertex="1" parent="1">
          <mxGeometry x="27.5" y="570" width="555" height="850" as="geometry" />
        </mxCell>
        <mxCell id="s0KOmCvRi8nNo2-xXgAx-6" value="" style="endArrow=block;dashed=1;endFill=0;endSize=12;html=1;exitX=0.5;exitY=0;exitDx=0;exitDy=0;entryX=0.5;entryY=1;entryDx=0;entryDy=0;" edge="1" parent="1" source="s0KOmCvRi8nNo2-xXgAx-3" target="s0KOmCvRi8nNo2-xXgAx-2">
          <mxGeometry width="160" relative="1" as="geometry">
            <mxPoint x="330" y="520" as="sourcePoint" />
            <mxPoint x="294.5" y="470" as="targetPoint" />
          </mxGeometry>
        </mxCell>
        <mxCell id="s0KOmCvRi8nNo2-xXgAx-7" value="" style="endArrow=block;endSize=16;endFill=0;html=1;exitX=0.5;exitY=0;exitDx=0;exitDy=0;" edge="1" parent="1" source="s0KOmCvRi8nNo2-xXgAx-2" target="s0KOmCvRi8nNo2-xXgAx-1">
          <mxGeometry width="160" relative="1" as="geometry">
            <mxPoint x="290" y="380" as="sourcePoint" />
            <mxPoint x="290" y="330" as="targetPoint" />
          </mxGeometry>
        </mxCell>
        <mxCell id="s0KOmCvRi8nNo2-xXgAx-8" value="&lt;p style=&quot;margin: 0px ; margin-top: 4px ; text-align: center&quot;&gt;&lt;span style=&quot;color: rgb(50 , 50 , 50) ; font-weight: 700 ; background-color: rgba(255 , 255 , 255 , 0.01)&quot;&gt;&lt;font style=&quot;font-size: 14px&quot;&gt;Context&lt;/font&gt;&lt;/span&gt;&lt;/p&gt;&lt;div style=&quot;resize: none ; outline: 0px ; color: rgb(50 , 50 , 50) ; font-weight: 700 ; text-align: center&quot;&gt;&lt;font size=&quot;3&quot;&gt;//用于在中间件之间传递消息&lt;/font&gt;&lt;/div&gt;&lt;hr size=&quot;1&quot;&gt;&lt;p style=&quot;margin: 0px ; margin-left: 4px&quot;&gt;&lt;font size=&quot;3&quot;&gt;-writermem:responseWriter&lt;br&gt;&lt;/font&gt;&lt;/p&gt;&lt;div style=&quot;resize: none ; outline: 0px&quot;&gt;&lt;/div&gt;&lt;p style=&quot;margin: 0px ; margin-left: 4px&quot;&gt;&lt;font size=&quot;3&quot;&gt;+Request:*http.Request&lt;br&gt;&lt;/font&gt;&lt;/p&gt;&lt;div style=&quot;resize: none ; outline: 0px&quot;&gt;&lt;/div&gt;&lt;p style=&quot;margin: 0px ; margin-left: 4px&quot;&gt;&lt;font size=&quot;3&quot;&gt;+Writer:ResponseWriter&lt;br&gt;&lt;/font&gt;&lt;/p&gt;&lt;div style=&quot;resize: none ; outline: 0px&quot;&gt;&lt;/div&gt;&lt;div style=&quot;resize: none ; outline: 0px&quot;&gt;&lt;/div&gt;&lt;p style=&quot;margin: 0px ; margin-left: 4px&quot;&gt;&lt;font size=&quot;3&quot;&gt;+Params:Params&lt;br&gt;&lt;/font&gt;&lt;/p&gt;&lt;div style=&quot;resize: none ; outline: 0px&quot;&gt;&lt;/div&gt;&lt;p style=&quot;margin: 0px ; margin-left: 4px&quot;&gt;&lt;font size=&quot;3&quot;&gt;-handlers:HandlersChain&lt;br&gt;&lt;/font&gt;&lt;/p&gt;&lt;div style=&quot;resize: none ; outline: 0px&quot;&gt;&lt;/div&gt;&lt;p style=&quot;margin: 0px ; margin-left: 4px&quot;&gt;&lt;font size=&quot;3&quot;&gt;-index:int8&lt;/font&gt;&lt;/p&gt;&lt;p style=&quot;margin: 0px ; margin-left: 4px&quot;&gt;&lt;span style=&quot;font-size: medium&quot;&gt;-fullPath:string&lt;/span&gt;&lt;/p&gt;&lt;p style=&quot;margin: 0px ; margin-left: 4px&quot;&gt;&lt;span style=&quot;font-size: medium&quot;&gt;-engine:*Engine&lt;/span&gt;&lt;/p&gt;&lt;p style=&quot;margin: 0px ; margin-left: 4px&quot;&gt;&lt;span style=&quot;font-size: medium&quot;&gt;//用来保护Keys&lt;/span&gt;&lt;/p&gt;&lt;p style=&quot;margin: 0px ; margin-left: 4px&quot;&gt;&lt;span style=&quot;font-size: medium&quot;&gt;-mu:syncRWMutex&lt;/span&gt;&lt;/p&gt;&lt;p style=&quot;margin: 0px ; margin-left: 4px&quot;&gt;&lt;span style=&quot;font-size: medium&quot;&gt;//k-v键值对，context保存的数据&lt;/span&gt;&lt;/p&gt;&lt;p style=&quot;margin: 0px ; margin-left: 4px&quot;&gt;&lt;span style=&quot;font-size: medium&quot;&gt;+Keys:map[string]interface{}&lt;/span&gt;&lt;/p&gt;&lt;p style=&quot;margin: 0px ; margin-left: 4px&quot;&gt;&lt;span style=&quot;font-size: medium&quot;&gt;//错误列表&lt;/span&gt;&lt;/p&gt;&lt;p style=&quot;margin: 0px ; margin-left: 4px&quot;&gt;&lt;span style=&quot;font-size: medium&quot;&gt;+Errors:errorMsgs&lt;/span&gt;&lt;/p&gt;&lt;p style=&quot;margin: 0px ; margin-left: 4px&quot;&gt;&lt;span style=&quot;font-size: medium&quot;&gt;//定义一个可以接受的格式列表&lt;/span&gt;&lt;/p&gt;&lt;p style=&quot;margin: 0px ; margin-left: 4px&quot;&gt;&lt;span style=&quot;font-size: medium&quot;&gt;+Accepted:[]string&lt;/span&gt;&lt;/p&gt;&lt;p style=&quot;margin: 0px ; margin-left: 4px&quot;&gt;&lt;span style=&quot;font-size: medium&quot;&gt;//c.Request.URL.Query()的缓存结果&lt;/span&gt;&lt;/p&gt;&lt;p style=&quot;margin: 0px ; margin-left: 4px&quot;&gt;&lt;span style=&quot;font-size: medium&quot;&gt;-queryCache:url.Values&lt;/span&gt;&lt;/p&gt;&lt;p style=&quot;margin: 0px ; margin-left: 4px&quot;&gt;&lt;font size=&quot;3&quot;&gt;//PostForm的缓存结果&lt;/font&gt;&lt;/p&gt;&lt;p style=&quot;margin: 0px ; margin-left: 4px&quot;&gt;&lt;span style=&quot;font-size: medium&quot;&gt;-formCache:url.Values&lt;/span&gt;&lt;span style=&quot;font-size: medium&quot;&gt;&lt;br&gt;&lt;/span&gt;&lt;/p&gt;&lt;p style=&quot;margin: 0px ; margin-left: 4px&quot;&gt;&lt;font size=&quot;3&quot;&gt;//用于设置cookie的SameSite属性&lt;/font&gt;&lt;/p&gt;&lt;p style=&quot;margin: 0px ; margin-left: 4px&quot;&gt;&lt;span style=&quot;font-size: medium&quot;&gt;-sameSite:http.SameSite&lt;/span&gt;&lt;/p&gt;&lt;div style=&quot;resize: none ; outline: 0px&quot;&gt;&lt;br&gt;&lt;/div&gt;&lt;hr size=&quot;1&quot;&gt;&lt;p style=&quot;margin: 0px ; margin-left: 4px&quot;&gt;&lt;font size=&quot;3&quot;&gt;+ method1(Type): Type&lt;br&gt;+ method2(Type, Type): Type&lt;/font&gt;&lt;/p&gt;" style="verticalAlign=top;align=left;overflow=fill;fontSize=12;fontFamily=Helvetica;html=1;" vertex="1" parent="1">
          <mxGeometry x="715" y="920" width="330" height="595" as="geometry" />
        </mxCell>
        <mxCell id="s0KOmCvRi8nNo2-xXgAx-9" value="&lt;p style=&quot;margin: 0px ; margin-top: 4px ; text-align: center&quot;&gt;&lt;span style=&quot;color: rgb(50 , 50 , 50) ; font-weight: 700 ; background-color: rgba(255 , 255 , 255 , 0.01)&quot;&gt;&lt;font style=&quot;font-size: 14px&quot;&gt;RouteInfo&lt;/font&gt;&lt;/span&gt;&lt;/p&gt;&lt;div style=&quot;resize: none ; outline: 0px ; color: rgb(50 , 50 , 50) ; font-weight: 700 ; text-align: center&quot;&gt;&lt;font size=&quot;3&quot;&gt;//路由请求信息，包括路径和处理方法&lt;/font&gt;&lt;/div&gt;&lt;hr size=&quot;1&quot;&gt;&lt;div style=&quot;resize: none ; outline: 0px ; color: rgb(50 , 50 , 50)&quot;&gt;&lt;font size=&quot;3&quot;&gt;//请求方式&lt;br&gt;&lt;/font&gt;&lt;/div&gt;&lt;p style=&quot;margin: 0px ; margin-left: 4px&quot;&gt;&lt;span style=&quot;color: rgb(50 , 50 , 50) ; background-color: rgba(255 , 255 , 255 , 0.01)&quot;&gt;&lt;font size=&quot;3&quot;&gt;+&amp;nbsp;Method:string&lt;/font&gt;&lt;/span&gt;&lt;/p&gt;&lt;div style=&quot;resize: none ; outline: 0px ; color: rgb(50 , 50 , 50)&quot;&gt;&lt;font size=&quot;3&quot;&gt;//请求路径&lt;br&gt;+ Path:string&lt;/font&gt;&lt;/div&gt;&lt;div style=&quot;resize: none ; outline: 0px ; color: rgb(50 , 50 , 50)&quot;&gt;&lt;font size=&quot;3&quot;&gt;//处理名称&lt;br&gt;&lt;/font&gt;&lt;div style=&quot;resize: none ; outline: 0px&quot;&gt;&lt;font size=&quot;3&quot;&gt;+ Handler:string&lt;/font&gt;&lt;/div&gt;&lt;div style=&quot;resize: none ; outline: 0px&quot;&gt;&lt;font size=&quot;3&quot;&gt;//处理方法&lt;br&gt;&lt;/font&gt;&lt;/div&gt;&lt;div style=&quot;resize: none ; outline: 0px&quot;&gt;&lt;font size=&quot;3&quot;&gt;+ HandlerFunc:HandlerFunc&lt;/font&gt;&lt;/div&gt;&lt;/div&gt;&lt;hr size=&quot;1&quot;&gt;&lt;p style=&quot;margin: 0px ; margin-left: 4px&quot;&gt;&lt;font size=&quot;3&quot;&gt;+ method1(Type): Type&lt;br&gt;+ method2(Type, Type): Type&lt;/font&gt;&lt;/p&gt;" style="verticalAlign=top;align=left;overflow=fill;fontSize=12;fontFamily=Helvetica;html=1;" vertex="1" parent="1">
          <mxGeometry x="1180" y="1327.5" width="290" height="300" as="geometry" />
        </mxCell>
        <mxCell id="s0KOmCvRi8nNo2-xXgAx-12" value="&lt;p style=&quot;margin: 0px ; margin-top: 4px ; text-align: center&quot;&gt;&lt;font style=&quot;font-size: 14px&quot;&gt;&lt;i&gt;&amp;lt;&amp;lt;Interface&amp;gt;&amp;gt;&lt;/i&gt;&lt;br&gt;&lt;b&gt;ResponseWriter&lt;/b&gt;&lt;br&gt;&lt;/font&gt;&lt;/p&gt;&lt;hr size=&quot;1&quot;&gt;&lt;p style=&quot;margin: 0px 0px 0px 8px&quot;&gt;&lt;font size=&quot;3&quot;&gt;+http.ResponseWriter&lt;/font&gt;&lt;/p&gt;&lt;p style=&quot;margin: 0px 0px 0px 8px&quot;&gt;&lt;font size=&quot;3&quot;&gt;+http.Hijacker&lt;/font&gt;&lt;/p&gt;&lt;p style=&quot;margin: 0px 0px 0px 8px&quot;&gt;&lt;font size=&quot;3&quot;&gt;+http.Flusher&lt;/font&gt;&lt;/p&gt;&lt;p style=&quot;margin: 0px 0px 0px 8px&quot;&gt;&lt;font size=&quot;3&quot;&gt;+http.CloseNotifier&lt;/font&gt;&lt;/p&gt;&lt;hr size=&quot;1&quot;&gt;&lt;p style=&quot;margin: 0px ; margin-left: 4px&quot;&gt;&lt;font size=&quot;3&quot;&gt;//返回http状态码&lt;/font&gt;&lt;/p&gt;&lt;p style=&quot;margin: 0px ; margin-left: 4px&quot;&gt;&lt;font size=&quot;3&quot;&gt;+Status(): int&lt;/font&gt;&lt;/p&gt;&lt;p style=&quot;margin: 0px ; margin-left: 4px&quot;&gt;&lt;font size=&quot;3&quot;&gt;//返回body大小&lt;/font&gt;&lt;/p&gt;&lt;p style=&quot;margin: 0px ; margin-left: 4px&quot;&gt;&lt;font size=&quot;3&quot;&gt;+Size():int&lt;/font&gt;&lt;/p&gt;&lt;p style=&quot;margin: 0px ; margin-left: 4px&quot;&gt;&lt;font size=&quot;3&quot;&gt;//写入body&lt;/font&gt;&lt;/p&gt;&lt;p style=&quot;margin: 0px ; margin-left: 4px&quot;&gt;&lt;font size=&quot;3&quot;&gt;+WriteString(string):(int,error)&lt;/font&gt;&lt;/p&gt;&lt;p style=&quot;margin: 0px ; margin-left: 4px&quot;&gt;&lt;font size=&quot;3&quot;&gt;//是否可写&lt;/font&gt;&lt;/p&gt;&lt;p style=&quot;margin: 0px ; margin-left: 4px&quot;&gt;&lt;font size=&quot;3&quot;&gt;+Written():bool&lt;/font&gt;&lt;/p&gt;&lt;p style=&quot;margin: 0px ; margin-left: 4px&quot;&gt;&lt;font size=&quot;3&quot;&gt;//开始写header&lt;/font&gt;&lt;/p&gt;&lt;p style=&quot;margin: 0px ; margin-left: 4px&quot;&gt;&lt;font size=&quot;3&quot;&gt;+WriteHeaerNow()&lt;/font&gt;&lt;/p&gt;&lt;p style=&quot;margin: 0px ; margin-left: 4px&quot;&gt;&lt;font size=&quot;3&quot;&gt;//返回Pusher http2.服务器强制推送使用&lt;/font&gt;&lt;/p&gt;&lt;p style=&quot;margin: 0px ; margin-left: 4px&quot;&gt;&lt;font size=&quot;3&quot;&gt;+Pusher():http:Pusher&lt;/font&gt;&lt;/p&gt;" style="verticalAlign=top;align=left;overflow=fill;fontSize=12;fontFamily=Helvetica;html=1;" vertex="1" parent="1">
          <mxGeometry x="720" y="10" width="320" height="380" as="geometry" />
        </mxCell>
        <mxCell id="s0KOmCvRi8nNo2-xXgAx-14" value="&lt;p style=&quot;margin: 0px ; margin-top: 4px ; text-align: center&quot;&gt;&lt;font style=&quot;font-size: 14px&quot;&gt;&lt;b&gt;responseWriter&lt;/b&gt;&lt;/font&gt;&lt;/p&gt;&lt;hr size=&quot;1&quot;&gt;&lt;p style=&quot;margin: 0px ; margin-left: 4px&quot;&gt;&lt;font size=&quot;3&quot;&gt;-http.ResponseWriter&lt;br&gt;-size:int&lt;/font&gt;&lt;/p&gt;&lt;p style=&quot;margin: 0px ; margin-left: 4px&quot;&gt;&lt;font size=&quot;3&quot;&gt;-status:int&lt;/font&gt;&lt;/p&gt;&lt;hr size=&quot;1&quot;&gt;&lt;p style=&quot;margin: 0px ; margin-left: 4px&quot;&gt;&lt;font size=&quot;3&quot;&gt;- reset(writer http.ResponseWriter)&lt;br&gt;+WriteHeader(code int)&lt;/font&gt;&lt;/p&gt;&lt;p style=&quot;margin: 0px ; margin-left: 4px&quot;&gt;&lt;span style=&quot;font-size: medium&quot;&gt;+WriteHeaderNow()&lt;/span&gt;&lt;br&gt;&lt;/p&gt;&lt;p style=&quot;margin: 0px ; margin-left: 4px&quot;&gt;&lt;span style=&quot;font-size: medium&quot;&gt;+Write(data []byte)(int,error)&lt;/span&gt;&lt;span style=&quot;font-size: medium&quot;&gt;&lt;br&gt;&lt;/span&gt;&lt;/p&gt;&lt;p style=&quot;margin: 0px ; margin-left: 4px&quot;&gt;&lt;span style=&quot;font-size: medium&quot;&gt;+WriteString(s string)(int,error)&lt;/span&gt;&lt;span style=&quot;font-size: medium&quot;&gt;&lt;br&gt;&lt;/span&gt;&lt;/p&gt;&lt;p style=&quot;margin: 0px ; margin-left: 4px&quot;&gt;&lt;span style=&quot;font-size: medium&quot;&gt;+Status():int&lt;/span&gt;&lt;span style=&quot;font-size: medium&quot;&gt;&lt;br&gt;&lt;/span&gt;&lt;/p&gt;&lt;p style=&quot;margin: 0px ; margin-left: 4px&quot;&gt;&lt;span style=&quot;font-size: medium&quot;&gt;+Size():int&lt;/span&gt;&lt;span style=&quot;font-size: medium&quot;&gt;&lt;br&gt;&lt;/span&gt;&lt;/p&gt;&lt;p style=&quot;margin: 0px ; margin-left: 4px&quot;&gt;&lt;span style=&quot;font-size: medium&quot;&gt;+Written():bool&lt;/span&gt;&lt;span style=&quot;font-size: medium&quot;&gt;&lt;br&gt;&lt;/span&gt;&lt;/p&gt;&lt;p style=&quot;margin: 0px ; margin-left: 4px&quot;&gt;&lt;span style=&quot;font-size: medium&quot;&gt;+Hijack():(netConn)&lt;/span&gt;&lt;span style=&quot;font-size: medium&quot;&gt;&lt;br&gt;&lt;/span&gt;&lt;/p&gt;&lt;p style=&quot;margin: 0px ; margin-left: 4px&quot;&gt;&lt;font size=&quot;3&quot;&gt;//满足http.CloseNotify接口&lt;/font&gt;&lt;/p&gt;&lt;p style=&quot;margin: 0px ; margin-left: 4px&quot;&gt;&lt;span style=&quot;font-size: medium&quot;&gt;+CloseNotify():&amp;lt;-chan bool&lt;/span&gt;&lt;/p&gt;&lt;p style=&quot;margin: 0px ; margin-left: 4px&quot;&gt;&lt;span style=&quot;font-size: medium&quot;&gt;//刷新方法，可以满足http.Flush接口&lt;/span&gt;&lt;/p&gt;&lt;p style=&quot;margin: 0px ; margin-left: 4px&quot;&gt;&lt;span style=&quot;font-size: medium&quot;&gt;+Flush()&lt;/span&gt;&lt;/p&gt;&lt;p style=&quot;margin: 0px ; margin-left: 4px&quot;&gt;&lt;span style=&quot;font-size: medium&quot;&gt;+Pusher():http.Pusher&lt;/span&gt;&lt;/p&gt;&lt;p style=&quot;margin: 0px ; margin-left: 4px&quot;&gt;&lt;span style=&quot;font-size: medium&quot;&gt;&lt;br&gt;&lt;/span&gt;&lt;/p&gt;" style="verticalAlign=top;align=left;overflow=fill;fontSize=12;fontFamily=Helvetica;html=1;" vertex="1" parent="1">
          <mxGeometry x="720" y="460" width="320" height="390" as="geometry" />
        </mxCell>
        <mxCell id="s0KOmCvRi8nNo2-xXgAx-15" value="" style="endArrow=block;dashed=1;endFill=0;endSize=12;html=1;entryX=0.5;entryY=1;entryDx=0;entryDy=0;" edge="1" parent="1" source="s0KOmCvRi8nNo2-xXgAx-14" target="s0KOmCvRi8nNo2-xXgAx-12">
          <mxGeometry width="160" relative="1" as="geometry">
            <mxPoint x="880" y="440" as="sourcePoint" />
            <mxPoint x="880" y="380" as="targetPoint" />
          </mxGeometry>
        </mxCell>
        <mxCell id="s0KOmCvRi8nNo2-xXgAx-16" value="" style="endArrow=open;html=1;endSize=12;startArrow=diamondThin;startSize=14;startFill=1;edgeStyle=orthogonalEdgeStyle;align=left;verticalAlign=bottom;entryX=0.5;entryY=1;entryDx=0;entryDy=0;" edge="1" parent="1" source="s0KOmCvRi8nNo2-xXgAx-8" target="s0KOmCvRi8nNo2-xXgAx-14">
          <mxGeometry x="-0.9333" y="-10" relative="1" as="geometry">
            <mxPoint x="750" y="1020" as="sourcePoint" />
            <mxPoint x="910" y="1020" as="targetPoint" />
            <mxPoint as="offset" />
          </mxGeometry>
        </mxCell>
      </root>
    </mxGraphModel>
  </diagram>
</mxfile>
